#!OML:ASF G:\JayActor3\Patient Classification 1\Patient 1\Session 6\male.ASF
:FULLY-SPECIFIED
:DEGREES
2000
root 10.1196 13.4964 -4.5242 87.5228 -65.3001 -35.4652
lowerback 31.407 -1.60431 1.90953
upperback 20.6035 -3.56612 -2.99284
thorax 5.99326 -2.00301 -3.40762
lowerneck 1.18666 8.19222 3.2789
upperneck -15.6915 11.6151 0.381858
head -4.76026 5.47114 -0.907786
rclavicle 7.63333e-014 6.12257e-014
rhumerus -9.71312 9.42014 -81.1156
rradius 72.1781
rwrist -5.82218
rhand -26.5877 -8.53174
rfingers 7.12502
rthumb -0.021848 -38.5115
lclavicle 7.63333e-014 6.12257e-014
lhumerus 64.0307 15.0201 37.3007
lradius 28.1865
lwrist 6.79755
lhand -42.9459 13.8466
lfingers 7.12502
lthumb -15.8063 43.2213
rfemur -104.936 2.5621 40.4322
rtibia 79.3135
rfoot -24.0619 -11.6678
rtoes -4.29479
lfemur -113.551 11.9092 -25.5962
ltibia 83.8645
lfoot -25.8165 16.5969
ltoes -0.268754
2001
root 10.1211 13.4943 -4.52711 87.5892 -65.2958 -35.5061
lowerback 31.3782 -1.61348 1.89886
upperback 20.5963 -3.57795 -3.01573
thorax 5.99385 -2.00751 -3.42401
lowerneck 1.15412 8.21166 3.33972
upperneck -15.6902 11.6354 0.319483
head -4.74693 5.48244 -0.934535
rclavicle -6.36111e-015 -9.54166e-015
rhumerus -9.71083 9.41548 -81.1481
rradius 72.1537
rwrist -5.80799
rhand -26.5813 -8.52596
rfingers 7.12502
rthumb -0.0156952 -38.5057
lclavicle -6.36111e-015 -9.54166e-015
lhumerus 64.0786 15.0847 37.2436
lradius 27.9627
lwrist 6.41352
lhand -43.3235 13.7252
lfingers 7.12502
lthumb -16.1699 43.0707
rfemur -104.976 2.59053 40.4662
rtibia 79.3204
rfoot -24.0529 -11.6572
rtoes -4.26892
lfemur -113.611 11.9254 -25.583
ltibia 83.8832
lfoot -25.8124 16.6015
ltoes -0.239016
2002
root 10.1226 13.493 -4.52987 87.6341 -65.2831 -35.5348
lowerback 31.3696 -1.62886 1.89784
upperback 20.5874 -3.5949 -3.03779
thorax 5.98409 -2.01384 -3.4424
lowerneck 1.11874 8.23106 3.39324
upperneck -15.6866 11.6565 0.267449
head -4.73347 5.4938 -0.956902
rclavicle 6.99722e-014 2.06736e-014
rhumerus -9.71339 9.41322 -81.182
rradius 72.1354
rwrist -5.79664
rhand -26.5774 -8.51711
rfingers 7.12502
rthumb -0.0118855 -38.4969
lclavicle 6.99722e-014 2.06736e-014
lhumerus 64.1317 15.1554 37.2271
lradius 27.7348
lwrist 5.99058
lhand -43.7026 13.5728
lfingers 7.12502
lthumb -16.5349 42.8883
rfemur -105.001 2.61137 40.5053
rtibia 79.3215
rfoot -24.0442 -11.6519
rtoes -4.26066
lfemur -113.654 11.9411 -25.565
ltibia 83.8946
lfoot -25.8085 16.5981
ltoes -0.205316
2003
root 10.1239 13.4924 -4.53266 87.6642 -65.2693 -35.5598
lowerback 31.382 -1.64505 1.89584
upperback 20.5764 -3.61304 -3.05939
thorax 5.96416 -2.02116 -3.45843
lowerneck 1.08304 8.24795 3.43908
upperneck -15.6811 11.6748 0.225746
head -4.72047 5.50358 -0.974855
rclavicle 6.36111e-015 -1.27222e-014
rhumerus -9.72287 9.41016 -81.2177
rradius 72.124
rwrist -5.78851
rhand -26.5733 -8.50742
rfingers 7.12502
rthumb -0.00793267 -38.4872
lclavicle 6.36111e-015 -1.27222e-014
lhumerus 64.1915 15.229 37.2504
lradius 27.5003
lwrist 5.5441
lhand -44.0814 13.407
lfingers 7.12502
lthumb -16.8995 42.6917
rfemur -105.008 2.62858 40.5422
rtibia 79.3166
rfoot -24.0365 -11.6516
rtoes -4.26596
lfemur -113.68 11.9604 -25.548
ltibia 83.8996
lfoot -25.8047 16.5914
ltoes -0.186527
2004
root 10.1248 13.4926 -4.53551 87.683 -65.2517 -35.5916
lowerback 31.4216 -1.66011 1.89298
upperback 20.5653 -3.63055 -3.08068
thorax 5.93386 -2.02873 -3.47261
lowerneck 1.04612 8.26286 3.47888
upperneck -15.6754 11.691 0.192514
head -4.70808 5.51209 -0.989226
rclavicle -9.85972e-014 -7.31528e-014
rhumerus -9.73748 9.4077 -81.2558
rradius 72.1195
rwrist -5.78477
rhand -26.5708 -8.49883
rfingers 7.12502
rthumb -0.00557378 -38.4786
lclavicle -9.85972e-014 -7.31528e-014
lhumerus 64.2591 15.3072 37.3035
lradius 27.2562
lwrist 5.0894
lhand -44.4523 13.2345
lfingers 7.12502
lthumb -17.2566 42.4883
rfemur -104.989 2.6442 40.5805
rtibia 79.3055
rfoot -24.0354 -11.6511
rtoes -4.27089
lfemur -113.683 11.9882 -25.5236
ltibia 83.902
lfoot -25.8043 16.5801
ltoes -0.169956
2005
root 10.1252 13.493 -4.53855 87.6975 -65.2296 -35.634
lowerback 31.4816 -1.67194 1.88878
upperback 20.554 -3.645 -3.09985
thorax 5.89613 -2.03549 -3.48366
lowerneck 0.960897 8.27863 3.53161
upperneck -15.2304 11.7039 0.188818
head -5.07956 5.52099 -1.06809
rclavicle 4.13472e-014 2.06736e-014
rhumerus -9.75727 9.40416 -81.294
rradius 72.1212
rwrist -5.78227
rhand -26.5693 -8.49256
rfingers 7.12502
rthumb -0.00408307 -38.4723
lclavicle 4.13472e-014 2.06736e-014
lhumerus 64.3331 15.387 37.3778
lradius 27.0018
lwrist 4.63112
lhand -44.8118 13.0715
lfingers 7.12502
lthumb -17.6025 42.2947
rfemur -104.947 2.66143 40.6218
rtibia 79.2915
rfoot -24.0403 -11.6494
rtoes -4.26988
lfemur -113.67 12.0244 -25.4894
ltibia 83.906
lfoot -25.8016 16.5756
ltoes -0.186244
